<svg width="80" height="41" viewBox="0 0 80 41" fill="none" xmlns="http://www.w3.org/2000/svg">
<path d="M12.4022 12.4971H12.3995C10.1372 12.4971 8.30322 14.2378 8.30322 16.3851V16.3876C8.30322 18.5349 10.1372 20.2756 12.3995 20.2756H12.4022C14.6645 20.2756 16.4985 18.5349 16.4985 16.3876V16.3851C16.4985 14.2378 14.6645 12.4971 12.4022 12.4971Z" fill="#2196F3"/>
<path d="M42.6368 11.2541C42.6304 8.27167 41.3795 5.41307 39.1579 3.3039C36.9363 1.19473 33.925 0.00677213 30.7828 0V0C27.6397 0.00541806 24.6269 1.19278 22.4042 3.30209C20.1814 5.41141 18.9298 8.27079 18.9233 11.2541V27.7009C18.9233 27.7009 42.6341 25.1943 42.6368 11.2567V11.2541Z" fill="#2196F3"/>
<path d="M0 33.099C0.00569902 35.1743 0.876554 37.163 2.42227 38.6306C3.96798 40.0983 6.06289 40.9256 8.24921 40.9316C10.4351 40.9256 12.5296 40.0987 14.0752 38.6316C15.6208 37.1645 16.492 35.1764 16.4984 33.1016V21.6577C16.4984 21.6577 0 23.4031 0 33.099ZM8.24921 35.1495C7.82196 35.1495 7.40431 35.0292 7.04907 34.8039C6.69383 34.5786 6.41696 34.2584 6.25346 33.8837C6.08996 33.509 6.04718 33.0968 6.13053 32.699C6.21388 32.3013 6.41962 31.9359 6.72173 31.6492C7.02383 31.3624 7.40874 31.1671 7.82778 31.088C8.24681 31.0089 8.68115 31.0495 9.07587 31.2047C9.4706 31.3599 9.80797 31.6227 10.0453 31.9599C10.2827 32.2971 10.4094 32.6935 10.4094 33.099C10.4105 33.369 10.3554 33.6364 10.2473 33.8861C10.1392 34.1357 9.98026 34.3627 9.77956 34.5539C9.57886 34.7451 9.34036 34.8968 9.07775 35.0003C8.81513 35.1039 8.53357 35.1572 8.24921 35.1572V35.1495Z" fill="#2196F3"/>
<path d="M25.0889 33.9878H23.4014V35.731H22.5225V31.4653H25.2998V32.1772H23.4014V33.2788H25.0889V33.9878ZM29.3135 33.6948C29.3135 34.1147 29.2393 34.4829 29.0908 34.7993C28.9424 35.1157 28.7295 35.3599 28.4521 35.5317C28.1768 35.7036 27.8604 35.7896 27.5029 35.7896C27.1494 35.7896 26.834 35.7046 26.5566 35.5347C26.2793 35.3647 26.0645 35.1226 25.9121 34.8081C25.7598 34.4917 25.6826 34.1284 25.6807 33.7183V33.5073C25.6807 33.0874 25.7559 32.7183 25.9062 32.3999C26.0586 32.0796 26.2725 31.8345 26.5479 31.6646C26.8252 31.4927 27.1416 31.4067 27.4971 31.4067C27.8525 31.4067 28.168 31.4927 28.4434 31.6646C28.7207 31.8345 28.9346 32.0796 29.085 32.3999C29.2373 32.7183 29.3135 33.0864 29.3135 33.5044V33.6948ZM28.4229 33.5015C28.4229 33.0542 28.3428 32.7144 28.1826 32.4819C28.0225 32.2495 27.7939 32.1333 27.4971 32.1333C27.2021 32.1333 26.9746 32.2485 26.8145 32.479C26.6543 32.7075 26.5732 33.0435 26.5713 33.4868V33.6948C26.5713 34.1304 26.6514 34.4683 26.8115 34.7085C26.9717 34.9487 27.2021 35.0688 27.5029 35.0688C27.7979 35.0688 28.0244 34.9536 28.1826 34.7231C28.3408 34.4907 28.4209 34.1528 28.4229 33.7095V33.5015ZM32.1641 34.6118C32.1641 34.4458 32.1055 34.3188 31.9883 34.231C31.8711 34.1411 31.6602 34.0474 31.3555 33.9497C31.0508 33.8501 30.8096 33.7524 30.6318 33.6567C30.1475 33.395 29.9053 33.0425 29.9053 32.5991C29.9053 32.3687 29.9697 32.1636 30.0986 31.9839C30.2295 31.8022 30.416 31.6606 30.6582 31.5591C30.9023 31.4575 31.1758 31.4067 31.4785 31.4067C31.7832 31.4067 32.0547 31.4624 32.293 31.5737C32.5312 31.6831 32.7158 31.8384 32.8467 32.0396C32.9795 32.2407 33.0459 32.4692 33.0459 32.7251H32.167C32.167 32.5298 32.1055 32.3784 31.9824 32.271C31.8594 32.1616 31.6865 32.1069 31.4639 32.1069C31.249 32.1069 31.082 32.1528 30.9629 32.2446C30.8438 32.3345 30.7842 32.4536 30.7842 32.6021C30.7842 32.7407 30.8535 32.8569 30.9922 32.9507C31.1328 33.0444 31.3389 33.1323 31.6104 33.2144C32.1104 33.3647 32.4746 33.5513 32.7031 33.7739C32.9316 33.9966 33.0459 34.2739 33.0459 34.606C33.0459 34.9751 32.9062 35.2651 32.627 35.4761C32.3477 35.6851 31.9717 35.7896 31.499 35.7896C31.1709 35.7896 30.8721 35.73 30.6025 35.6108C30.333 35.4897 30.127 35.3247 29.9844 35.1157C29.8438 34.9067 29.7734 34.6646 29.7734 34.3892H30.6553C30.6553 34.8599 30.9365 35.0952 31.499 35.0952C31.708 35.0952 31.8711 35.0532 31.9883 34.9692C32.1055 34.8833 32.1641 34.7642 32.1641 34.6118ZM36.8545 32.1772H35.5479V35.731H34.6689V32.1772H33.3799V31.4653H36.8545V32.1772ZM39.9248 33.8823H38.2373V35.0249H40.2178V35.731H37.3584V31.4653H40.2119V32.1772H38.2373V33.1938H39.9248V33.8823ZM42.3125 34.1694H41.6123V35.731H40.7334V31.4653H42.3184C42.8223 31.4653 43.2109 31.5776 43.4844 31.8022C43.7578 32.0269 43.8945 32.3442 43.8945 32.7544C43.8945 33.0454 43.8311 33.2886 43.7041 33.4839C43.5791 33.6772 43.3887 33.8315 43.1328 33.9468L44.0557 35.6899V35.731H43.1123L42.3125 34.1694ZM41.6123 33.4575H42.3213C42.542 33.4575 42.7129 33.4019 42.834 33.2905C42.9551 33.1772 43.0156 33.022 43.0156 32.8247C43.0156 32.6235 42.958 32.4653 42.8428 32.3501C42.7295 32.2349 42.5547 32.1772 42.3184 32.1772H41.6123V33.4575ZM46.9385 34.228V35.731H46.0596V31.4653H47.7236C48.0439 31.4653 48.3252 31.5239 48.5674 31.6411C48.8115 31.7583 48.999 31.9253 49.1299 32.1421C49.2607 32.3569 49.3262 32.6021 49.3262 32.8774C49.3262 33.2954 49.1826 33.6255 48.8955 33.8677C48.6104 34.1079 48.2148 34.228 47.709 34.228H46.9385ZM46.9385 33.5161H47.7236C47.9561 33.5161 48.1328 33.4614 48.2539 33.3521C48.377 33.2427 48.4385 33.0864 48.4385 32.8833C48.4385 32.6743 48.377 32.5054 48.2539 32.3765C48.1309 32.2476 47.9609 32.1812 47.7441 32.1772H46.9385V33.5161ZM52.499 33.8823H50.8115V35.0249H52.792V35.731H49.9326V31.4653H52.7861V32.1772H50.8115V33.1938H52.499V33.8823ZM56.5771 32.1772H55.2705V35.731H54.3916V32.1772H53.1025V31.4653H56.5771V32.1772ZM59.6475 33.8823H57.96V35.0249H59.9404V35.731H57.0811V31.4653H59.9346V32.1772H57.96V33.1938H59.6475V33.8823ZM62.0352 34.1694H61.335V35.731H60.4561V31.4653H62.041C62.5449 31.4653 62.9336 31.5776 63.207 31.8022C63.4805 32.0269 63.6172 32.3442 63.6172 32.7544C63.6172 33.0454 63.5537 33.2886 63.4268 33.4839C63.3018 33.6772 63.1113 33.8315 62.8555 33.9468L63.7783 35.6899V35.731H62.835L62.0352 34.1694ZM61.335 33.4575H62.0439C62.2646 33.4575 62.4355 33.4019 62.5566 33.2905C62.6777 33.1772 62.7383 33.022 62.7383 32.8247C62.7383 32.6235 62.6807 32.4653 62.5654 32.3501C62.4521 32.2349 62.2773 32.1772 62.041 32.1772H61.335V33.4575ZM66.5 34.6118C66.5 34.4458 66.4414 34.3188 66.3242 34.231C66.207 34.1411 65.9961 34.0474 65.6914 33.9497C65.3867 33.8501 65.1455 33.7524 64.9678 33.6567C64.4834 33.395 64.2412 33.0425 64.2412 32.5991C64.2412 32.3687 64.3057 32.1636 64.4346 31.9839C64.5654 31.8022 64.752 31.6606 64.9941 31.5591C65.2383 31.4575 65.5117 31.4067 65.8145 31.4067C66.1191 31.4067 66.3906 31.4624 66.6289 31.5737C66.8672 31.6831 67.0518 31.8384 67.1826 32.0396C67.3154 32.2407 67.3818 32.4692 67.3818 32.7251H66.5029C66.5029 32.5298 66.4414 32.3784 66.3184 32.271C66.1953 32.1616 66.0225 32.1069 65.7998 32.1069C65.585 32.1069 65.418 32.1528 65.2988 32.2446C65.1797 32.3345 65.1201 32.4536 65.1201 32.6021C65.1201 32.7407 65.1895 32.8569 65.3281 32.9507C65.4688 33.0444 65.6748 33.1323 65.9463 33.2144C66.4463 33.3647 66.8105 33.5513 67.0391 33.7739C67.2676 33.9966 67.3818 34.2739 67.3818 34.606C67.3818 34.9751 67.2422 35.2651 66.9629 35.4761C66.6836 35.6851 66.3076 35.7896 65.835 35.7896C65.5068 35.7896 65.208 35.73 64.9385 35.6108C64.6689 35.4897 64.4629 35.3247 64.3203 35.1157C64.1797 34.9067 64.1094 34.6646 64.1094 34.3892H64.9912C64.9912 34.8599 65.2725 35.0952 65.835 35.0952C66.0439 35.0952 66.207 35.0532 66.3242 34.9692C66.4414 34.8833 66.5 34.7642 66.5 34.6118Z" fill="#2196F3"/>
</svg>
