<svg width="41" height="42" viewBox="0 0 41 42" fill="none" xmlns="http://www.w3.org/2000/svg">
<path d="M6.34566 40.7083C6.36067 40.7087 6.37546 40.7119 6.38915 40.7176C6.40284 40.7233 6.41516 40.7315 6.42539 40.7418L6.63116 40.9518C6.47144 41.1219 6.27403 41.2579 6.05243 41.3505C5.79293 41.4516 5.51326 41.5005 5.23192 41.4938C4.96755 41.4988 4.70488 41.4533 4.46028 41.3601C4.23964 41.2745 4.04139 41.1458 3.87898 40.9829C3.71321 40.8139 3.58553 40.6158 3.50344 40.4004C3.41355 40.1602 3.36916 39.9073 3.37226 39.6531C3.36861 39.3972 3.4166 39.143 3.51373 38.9035C3.60359 38.6866 3.73912 38.4886 3.91241 38.3209C4.08805 38.1566 4.29815 38.0274 4.52973 37.9413C4.78306 37.8502 5.05283 37.8048 5.32452 37.8076C5.57689 37.802 5.82792 37.8434 6.06272 37.9294C6.26644 38.0114 6.45349 38.1253 6.61573 38.266L6.4434 38.4904C6.43149 38.5062 6.41669 38.52 6.39967 38.531C6.37934 38.544 6.35477 38.5499 6.33022 38.5477C6.30353 38.546 6.27779 38.5378 6.25563 38.5239L6.16303 38.4642L6.03443 38.3878C5.97891 38.3594 5.92133 38.3347 5.86209 38.3138C5.78581 38.2884 5.70756 38.2685 5.62803 38.2541C5.52709 38.2368 5.42457 38.2288 5.32195 38.2302C5.12631 38.2279 4.93215 38.262 4.75093 38.3305C4.58192 38.3939 4.42937 38.4899 4.30338 38.6122C4.17512 38.7423 4.07629 38.8949 4.01273 39.061C3.94029 39.2511 3.90458 39.4515 3.90727 39.6531C3.90418 39.8578 3.93988 40.0615 4.01273 40.2547C4.07549 40.4194 4.1725 40.5711 4.29823 40.7012C4.41604 40.8224 4.56206 40.9171 4.72521 40.9781C4.89311 41.0427 5.07333 41.0752 5.25507 41.0736C5.36005 41.0751 5.465 41.0687 5.56887 41.0545C5.73848 41.0353 5.90118 40.9806 6.04472 40.8945C6.11671 40.8505 6.18467 40.801 6.24792 40.7465C6.27436 40.7231 6.30914 40.7095 6.34566 40.7083Z" fill="#AFB1B8"/>
<path d="M12.2871 39.6528C12.2903 39.906 12.2432 40.1577 12.1482 40.3951C12.0644 40.6105 11.9323 40.807 11.7608 40.9715C11.5892 41.1361 11.382 41.2651 11.1528 41.3499C10.6492 41.5282 10.0925 41.5282 9.58896 41.3499C9.36125 41.2638 9.15539 41.1345 8.98452 40.9704C8.81305 40.8028 8.68004 40.6047 8.59356 40.388C8.40827 39.9072 8.40827 39.3816 8.59356 38.9008C8.6813 38.684 8.81414 38.4853 8.98452 38.316C9.15685 38.157 9.3626 38.0327 9.58896 37.9508C10.0919 37.7693 10.6499 37.7693 11.1528 37.9508C11.3813 38.0369 11.588 38.1662 11.7598 38.3303C11.9292 38.4963 12.0612 38.6918 12.1482 38.9056C12.2435 39.1446 12.2906 39.3979 12.2871 39.6528ZM11.747 39.6528C11.751 39.4501 11.718 39.2483 11.6492 39.056C11.5916 38.8912 11.4979 38.7392 11.374 38.6096C11.2534 38.487 11.1049 38.3908 10.9393 38.3279C10.5734 38.1974 10.1684 38.1974 9.80245 38.3279C9.63684 38.3908 9.48836 38.487 9.36776 38.6096C9.24215 38.7385 9.14747 38.8906 9.08997 39.056C8.9591 39.4446 8.9591 39.8609 9.08997 40.2495C9.14803 40.4147 9.24265 40.5667 9.36776 40.6959C9.48851 40.8178 9.637 40.9132 9.80245 40.9752C10.169 41.1024 10.5728 41.1024 10.9393 40.9752C11.1048 40.9132 11.2533 40.8178 11.374 40.6959C11.4974 40.5659 11.591 40.4141 11.6492 40.2495C11.7183 40.0572 11.7513 39.8554 11.747 39.6528Z" fill="#AFB1B8"/>
<path d="M16.3408 40.2784L16.3948 40.4121C16.4154 40.3643 16.4334 40.3214 16.4539 40.2784C16.4736 40.2335 16.4959 40.1897 16.5208 40.1471L17.8352 37.9298C17.8609 37.8916 17.884 37.8677 17.9098 37.8606C17.9447 37.8507 17.9813 37.8466 18.0178 37.8486H18.4062V41.4551H17.9458V38.8034C17.9458 38.7699 17.9458 38.7318 17.9458 38.6912C17.9433 38.6498 17.9433 38.6084 17.9458 38.5671L16.6237 40.8154C16.6069 40.8491 16.58 40.8776 16.5463 40.8975C16.5125 40.9174 16.4733 40.9278 16.4334 40.9276H16.3588C16.3187 40.9281 16.2794 40.9178 16.2456 40.8979C16.2118 40.8779 16.185 40.8493 16.1684 40.8154L14.8078 38.5527C14.8078 38.5957 14.8078 38.6387 14.8078 38.6816C14.8078 38.7246 14.8078 38.7628 14.8078 38.7962V41.4479H14.3628V37.8486H14.7512C14.7877 37.8466 14.8243 37.8507 14.8592 37.8606C14.8911 37.8752 14.9165 37.8997 14.9312 37.9298L16.2739 40.1495C16.3003 40.1905 16.3227 40.2337 16.3408 40.2784Z" fill="#AFB1B8"/>
<path d="M21.2869 40.0991V41.45H20.7725V37.8485H21.9196C22.1362 37.8447 22.3521 37.8712 22.5601 37.9273C22.7266 37.9711 22.881 38.0476 23.0128 38.1516C23.127 38.2491 23.2151 38.3701 23.27 38.5048C23.3307 38.6518 23.3604 38.8081 23.3575 38.9655C23.3597 39.1234 23.3274 39.2801 23.2623 39.4261C23.2005 39.5643 23.1054 39.6875 22.9845 39.7865C22.8525 39.8948 22.6974 39.9762 22.5292 40.0251C22.329 40.0845 22.1195 40.1127 21.9093 40.1087L21.2869 40.0991ZM21.2869 39.7125H21.9093C22.0446 39.7141 22.1792 39.6956 22.308 39.6576C22.4143 39.6244 22.5123 39.5716 22.5961 39.5025C22.6734 39.4364 22.7332 39.3547 22.771 39.2638C22.8131 39.1676 22.8341 39.0645 22.8327 38.9607C22.8387 38.8606 22.8211 38.7604 22.7811 38.6673C22.7412 38.5741 22.6798 38.4902 22.6013 38.4213C22.4047 38.2789 22.1579 38.21 21.9093 38.228H21.2869V39.7125Z" fill="#AFB1B8"/>
<path d="M28.2007 41.455H27.7943C27.7536 41.4564 27.7135 41.4446 27.6812 41.4215C27.652 41.3991 27.6291 41.3704 27.6143 41.338L27.2645 40.4667H25.5077L25.145 41.338C25.1317 41.3698 25.1095 41.3978 25.0807 41.4192C25.048 41.4436 25.007 41.4563 24.965 41.455H24.5586L26.1019 37.8481H26.6369L28.2007 41.455ZM25.6543 40.1158H27.105L26.4928 38.6478C26.4461 38.5374 26.4074 38.4241 26.3771 38.3088L26.3179 38.4974C26.2999 38.5547 26.2794 38.6072 26.2614 38.6502L25.6543 40.1158Z" fill="#AFB1B8"/>
<path d="M30.4233 37.8649C30.4541 37.8806 30.4805 37.9026 30.5005 37.9294L32.7511 40.6482C32.7511 40.6052 32.7511 40.5622 32.7511 40.5217C32.7511 40.4811 32.7511 40.4405 32.7511 40.4023V37.8482H33.2115V41.455H32.9543C32.9178 41.456 32.8816 41.4486 32.8489 41.4335C32.8171 41.4163 32.7892 41.3936 32.7666 41.3667L30.5185 38.6503C30.521 38.6916 30.521 38.733 30.5185 38.7744C30.5185 38.815 30.5185 38.8508 30.5185 38.8842V41.455H30.0581V37.8482H30.3308C30.3626 37.8474 30.3942 37.8531 30.4233 37.8649Z" fill="#AFB1B8"/>
<path d="M37.0028 40.0205V41.4526H36.4883V40.0205L35.0659 37.8483H35.5263C35.566 37.8461 35.6052 37.8571 35.6369 37.8794C35.6649 37.9025 35.6884 37.93 35.7064 37.9605L36.5964 39.3617C36.6324 39.4213 36.6632 39.4762 36.689 39.5287C36.7147 39.5813 36.7353 39.6314 36.7533 39.6815L36.8201 39.5264C36.8451 39.4696 36.8743 39.4146 36.9076 39.3617L37.7847 37.951C37.8031 37.9228 37.8256 37.8971 37.8516 37.8746C37.8821 37.8498 37.9217 37.837 37.9622 37.8388H38.4277L37.0028 40.0205Z" fill="#AFB1B8"/>
<path d="M16.0859 31.7957C16.3097 31.822 16.5361 31.8435 16.765 31.8625C20.2356 30.4218 23.1716 28.0638 25.206 25.0832C27.2404 22.1026 28.283 18.6316 28.2033 15.1042L24.3785 11.5549C25.1562 15.3105 24.7925 19.1928 23.3279 22.7675C21.8634 26.3422 19.3559 29.4682 16.0859 31.7957Z" fill="#AFB1B8"/>
<path d="M14.7202 31.6306L14.8231 31.6497C18.3173 29.3304 20.9814 26.0916 22.4708 22.3523C23.9601 18.6129 24.2063 14.545 23.1774 10.6744L17.7296 5.61914C19.9331 9.77446 20.82 14.4249 20.2873 19.0296C19.7546 23.6342 17.824 28.004 14.7202 31.6306Z" fill="#AFB1B8"/>
<path d="M33.1959 19.2717C32.2704 23.1475 30.0225 26.6431 26.7861 29.2392C25.841 30.0016 24.8214 30.6808 23.7407 31.2681C26.3761 30.5493 28.7983 29.2785 30.8207 27.5536C32.8432 25.8288 34.4117 23.696 35.4054 21.3197L33.1959 19.2717Z" fill="#AFB1B8"/>
<path d="M32.3292 18.7011L29.1835 15.782C29.1233 19.1101 28.1037 22.3626 26.2306 25.2014C24.3575 28.0401 21.6993 30.3615 18.5322 31.9243H18.5477C19.2534 31.9241 19.9586 31.885 20.6594 31.8074C23.6192 30.6863 26.2339 28.9028 28.2702 26.6159C30.3064 24.3289 31.7009 21.6098 32.3292 18.7011Z" fill="#AFB1B8"/>
<path d="M15.1757 3.48725L11.4229 0C8.06808 1.20303 5.18278 3.3179 3.14464 6.06783C1.1065 8.81777 0.0104686 12.0746 0 15.4122H0C0.0125737 19.1001 1.3502 22.6787 3.80116 25.5818C6.25213 28.4848 9.67642 30.5464 13.5321 31.4402C16.974 27.5488 18.9892 22.7403 19.2847 17.7134C19.5803 12.6865 18.1409 7.70309 15.1757 3.48725Z" fill="#AFB1B8"/>
<path d="M41.0002 18.1644C40.9867 13.7889 39.1076 9.59627 35.7735 6.50235C32.4394 3.40843 27.9213 1.6647 23.2062 1.65211C21.0274 1.65002 18.8671 2.02311 16.835 2.75245L39.8119 24.0742C40.5987 22.1895 41.0016 20.1856 41.0002 18.1644Z" fill="#AFB1B8"/>
</svg>
