<svg width="45" height="48" viewBox="0 0 45 48" fill="none" xmlns="http://www.w3.org/2000/svg">
<path d="M6 0L13.3076 6.73812H33.6924V25.5343L41 32.2725V0H6Z" fill="#AFB1B8"/>
<path d="M0 6.4541V37.8049H34V25.3432L13.5231 6.46186L0 6.4541ZM27.5231 33.2191H5.38008V12.134H6.9453V31.7913H27.5231V33.2191Z" fill="#AFB1B8"/>
<path d="M9.79102 43.7009L10.6089 42.0164H11.2925L10.1011 44.2625V45.571H9.48096V44.2625L8.28711 42.0164H8.97314L9.79102 43.7009ZM13.3018 44.7434H11.9248L11.6367 45.571H10.9946L12.3374 42.0164H12.8916L14.2368 45.571H13.5923L13.3018 44.7434ZM12.0981 44.2454H13.1284L12.6133 42.7708L12.0981 44.2454ZM15.7358 44.6116C15.7358 44.4472 15.7806 44.2966 15.8701 44.1599C15.9596 44.0216 16.1362 43.858 16.3999 43.6692C16.2616 43.495 16.1647 43.3469 16.1094 43.2249C16.0557 43.1028 16.0288 42.9848 16.0288 42.8708C16.0288 42.5925 16.1134 42.3728 16.2827 42.2117C16.452 42.0489 16.6799 41.9675 16.9663 41.9675C17.2251 41.9675 17.4367 42.044 17.6011 42.197C17.7671 42.3484 17.8501 42.5364 17.8501 42.761C17.8501 42.9091 17.8127 43.0458 17.7378 43.1711C17.6629 43.2948 17.54 43.4185 17.3691 43.5422L17.1274 43.718L17.8135 44.5286C17.9128 44.3333 17.9624 44.116 17.9624 43.8767H18.4775C18.4775 44.3145 18.375 44.6734 18.1699 44.9534L18.6924 45.571H18.0039L17.8037 45.3342C17.5498 45.5247 17.2471 45.6199 16.8955 45.6199C16.5439 45.6199 16.2624 45.5271 16.0508 45.3416C15.8408 45.1544 15.7358 44.9111 15.7358 44.6116ZM16.9126 45.1462C17.1128 45.1462 17.3 45.0795 17.4741 44.946L16.6978 44.0305L16.6221 44.0842C16.4268 44.2323 16.3291 44.4016 16.3291 44.592C16.3291 44.7564 16.382 44.8899 16.4878 44.9924C16.5936 45.095 16.7352 45.1462 16.9126 45.1462ZM16.5854 42.8562C16.5854 42.9929 16.6693 43.1646 16.8369 43.3713L17.1079 43.1858L17.1836 43.1248C17.2845 43.0352 17.335 42.9205 17.335 42.7805C17.335 42.6877 17.3 42.6088 17.23 42.5437C17.16 42.477 17.0713 42.4436 16.9639 42.4436C16.8483 42.4436 16.7563 42.4827 16.688 42.5608C16.6196 42.6389 16.5854 42.7374 16.5854 42.8562ZM23.043 44.4138C23.0072 44.7931 22.8672 45.0893 22.623 45.3025C22.3789 45.5141 22.0542 45.6199 21.6489 45.6199C21.3657 45.6199 21.1159 45.5531 20.8994 45.4197C20.6846 45.2846 20.5186 45.0933 20.4014 44.8459C20.2842 44.5986 20.2231 44.3113 20.2183 43.9841V43.6521C20.2183 43.3168 20.2777 43.0214 20.3965 42.7659C20.5153 42.5103 20.6854 42.3134 20.9067 42.175C21.1297 42.0367 21.3869 41.9675 21.6782 41.9675C22.0705 41.9675 22.3862 42.0741 22.6255 42.2874C22.8647 42.5006 23.0039 42.8017 23.043 43.1907H22.4277C22.3984 42.9351 22.3236 42.7512 22.2031 42.6389C22.0843 42.525 21.9093 42.468 21.6782 42.468C21.4097 42.468 21.203 42.5665 21.0581 42.7634C20.9149 42.9587 20.8416 43.246 20.8384 43.6252V43.9402C20.8384 44.3243 20.9067 44.6173 21.0435 44.8191C21.1818 45.0209 21.3836 45.1218 21.6489 45.1218C21.8914 45.1218 22.0737 45.0673 22.1958 44.9583C22.3179 44.8492 22.3952 44.6677 22.4277 44.4138H23.043ZM26.4341 43.8865C26.4341 44.2348 26.3739 44.5408 26.2534 44.8044C26.133 45.0665 25.9604 45.2683 25.7358 45.4099C25.5129 45.5499 25.2557 45.6199 24.9644 45.6199C24.6763 45.6199 24.4191 45.5499 24.1929 45.4099C23.9683 45.2683 23.7941 45.0673 23.6704 44.8069C23.5483 44.5465 23.4865 44.2462 23.4849 43.906V43.7058C23.4849 43.3591 23.5459 43.0531 23.668 42.7878C23.7917 42.5225 23.965 42.3199 24.188 42.1799C24.4126 42.0383 24.6698 41.9675 24.9595 41.9675C25.2492 41.9675 25.5055 42.0375 25.7285 42.1775C25.9531 42.3158 26.1265 42.516 26.2485 42.7781C26.3706 43.0385 26.4325 43.342 26.4341 43.6887V43.8865ZM25.8164 43.7009C25.8164 43.307 25.7415 43.0051 25.5918 42.7952C25.4437 42.5852 25.2329 42.4802 24.9595 42.4802C24.6925 42.4802 24.4834 42.5852 24.332 42.7952C24.1823 43.0035 24.1058 43.2989 24.1025 43.6814V43.8865C24.1025 44.2771 24.1782 44.579 24.3296 44.7922C24.4826 45.0055 24.6942 45.1121 24.9644 45.1121C25.2378 45.1121 25.4478 45.0079 25.5942 44.7996C25.7424 44.5912 25.8164 44.2869 25.8164 43.8865V43.7009Z" fill="#AFB1B8"/>
</svg>
