<svg width="89" height="45" viewBox="0 0 89 45" fill="none" xmlns="http://www.w3.org/2000/svg">
<path d="M44.7404 20.7983C44.3224 20.204 44.1225 19.5016 44.1699 18.7946V15.8896C44.1699 14.999 44.359 14.3223 44.7372 13.8593C45.1154 13.3963 45.7649 13.1658 46.6858 13.1677C47.5512 13.1677 48.1654 13.3648 48.5287 13.7588C48.9249 14.2615 49.1176 14.8764 49.0735 15.4965V16.1792H47.5255V15.4876C47.531 15.2613 47.516 15.0349 47.4807 14.8109C47.4584 14.6577 47.3804 14.516 47.2595 14.409C47.1006 14.2936 46.9003 14.2377 46.6987 14.2523C46.4866 14.2377 46.2762 14.2968 46.1089 14.4178C45.9741 14.5364 45.8842 14.6918 45.8525 14.8611C45.8081 15.0982 45.7878 15.3387 45.7916 15.5793V19.1049C45.7672 19.445 45.8355 19.7854 45.9904 20.0949C46.0673 20.1997 46.1743 20.2827 46.2993 20.3349C46.4243 20.387 46.5625 20.4063 46.6987 20.3905C46.897 20.4055 47.0937 20.3482 47.2467 20.2309C47.3728 20.1155 47.454 19.9648 47.4775 19.8024C47.5136 19.5685 47.5297 19.3323 47.5255 19.0961V18.3809H49.0735V19.034C49.117 19.6804 48.9289 20.3221 48.5383 20.8604C48.1825 21.2918 47.5768 21.5076 46.6858 21.5076C45.7949 21.5076 45.1218 21.2771 44.7404 20.7983Z" fill="#AFB1B8"/>
<path d="M51.1856 20.8279C50.7946 20.3757 50.5991 19.7167 50.5991 18.8449V15.7891C50.5991 14.9261 50.7946 14.273 51.1856 13.8297C51.5766 13.3864 52.2304 13.1658 53.147 13.1677C54.0572 13.1677 54.7078 13.3884 55.0988 13.8297C55.4898 14.273 55.6885 14.9261 55.6885 15.7891V18.8449C55.6885 19.7078 55.4898 20.3698 55.0924 20.8249C54.695 21.28 54.0476 21.5076 53.147 21.5076C52.2464 21.5076 51.5798 21.2771 51.1856 20.8279ZM53.8681 20.0949C54.0081 19.8117 54.0719 19.5015 54.054 19.1906V15.4492C54.072 15.1444 54.0093 14.8401 53.8713 14.5626C53.7928 14.4557 53.6832 14.3713 53.5551 14.319C53.4271 14.2668 53.2856 14.2488 53.147 14.2671C53.0079 14.2492 52.8662 14.2674 52.7377 14.3196C52.6093 14.3718 52.4991 14.456 52.4195 14.5626C52.2786 14.8393 52.2147 15.144 52.2336 15.4492V19.2084C52.2141 19.5193 52.278 19.8299 52.4195 20.1127C52.5097 20.208 52.6211 20.2844 52.746 20.3368C52.8709 20.3891 53.0066 20.4162 53.1438 20.4162C53.281 20.4162 53.4167 20.3891 53.5416 20.3368C53.6665 20.2844 53.7779 20.208 53.8681 20.1127V20.0949Z" fill="#AFB1B8"/>
<path d="M57.5505 13.2568H59.2171L60.4702 18.8949L61.7522 13.2568H63.3739L63.5374 21.3948H62.3387L62.2105 15.739L60.9734 21.3948H60.0119L58.7299 15.7183L58.6114 21.3948H57.3999L57.5505 13.2568Z" fill="#AFB1B8"/>
<path d="M65.4061 13.2568H68.0021C69.4977 13.2568 70.2455 14.0271 70.2455 15.5676C70.2455 17.0431 69.4581 17.7799 67.8835 17.7779H66.9989V21.3948H65.3965L65.4061 13.2568ZM67.6239 16.7348C67.7822 16.7533 67.943 16.7399 68.0952 16.6956C68.2474 16.6512 68.3873 16.5768 68.5052 16.4777C68.689 16.2029 68.77 15.8801 68.736 15.5587C68.7444 15.3105 68.7185 15.0623 68.6591 14.82C68.6362 14.7391 68.5961 14.6632 68.5411 14.5967C68.486 14.5303 68.4172 14.4746 68.3386 14.4329C68.1161 14.3345 67.8702 14.2898 67.6239 14.3029H67.0021V16.7348H67.6239Z" fill="#AFB1B8"/>
<path d="M72.5559 13.2568H74.277L76.0428 21.3948H74.5494L74.2 19.5184H72.6649L72.3059 21.3948H70.79L72.5559 13.2568ZM74.027 18.5758L73.4277 15.1598L72.8283 18.5758H74.027Z" fill="#AFB1B8"/>
<path d="M77.469 13.2568H78.5908L80.7381 17.8991V13.2568H82.0681V21.3948H81.0009L78.8407 16.5487V21.3948H77.4658L77.469 13.2568Z" fill="#AFB1B8"/>
<path d="M85.1836 18.2919L83.3984 13.2681H84.9015L85.9912 16.4951L87.0136 13.2681H88.4846L86.7219 18.2919V21.3948H85.1836V18.2919Z" fill="#AFB1B8"/>
<path d="M47.2146 24.9531V25.3786H45.907V28.6853H45.3589V25.3786H44.0449V24.9531H47.2146Z" fill="#AFB1B8"/>
<path d="M51.3141 28.6857H50.891C50.8481 28.6882 50.8057 28.6755 50.7724 28.6503C50.7404 28.6286 50.7159 28.5988 50.7019 28.5646L50.3238 27.678H48.5097L48.1316 28.5646C48.1208 28.6016 48.1011 28.636 48.0739 28.665C48.0403 28.6898 47.9982 28.7024 47.9553 28.7005H47.5322L49.1347 24.9683H49.6924L51.3141 28.6857ZM48.6604 27.2998H50.1731L49.5321 25.7809C49.4848 25.666 49.4452 25.5486 49.4135 25.4293C49.3911 25.5002 49.3719 25.5681 49.3526 25.6272L49.295 25.7839L48.6604 27.2998Z" fill="#AFB1B8"/>
<path d="M54.0766 28.3191C54.177 28.324 54.2775 28.324 54.3779 28.3191C54.4645 28.3109 54.5503 28.296 54.6343 28.2748C54.7128 28.257 54.7899 28.2343 54.865 28.2068C54.9356 28.1802 55.0061 28.1477 55.0798 28.1152V27.2758H54.4388C54.4229 27.2766 54.4071 27.2744 54.3922 27.2693C54.3773 27.2643 54.3637 27.2564 54.3523 27.2462C54.3417 27.2378 54.3334 27.2274 54.3279 27.2156C54.3223 27.2038 54.3197 27.1911 54.3202 27.1783V26.8916H55.5637V28.3221C55.4622 28.389 55.355 28.4483 55.2432 28.4994C55.129 28.5514 55.0099 28.5939 54.8875 28.6265C54.7564 28.662 54.6224 28.6877 54.4869 28.7033C54.3315 28.7192 54.1753 28.7271 54.0189 28.727C53.7425 28.7291 53.4683 28.6819 53.2113 28.5881C52.9714 28.4991 52.7534 28.3664 52.5703 28.1979C52.3919 28.0277 52.2514 27.8269 52.1569 27.6068C52.0559 27.3594 52.0059 27.0968 52.0095 26.8325C52.0061 26.5665 52.055 26.3021 52.1537 26.0522C52.2459 25.831 52.3866 25.6298 52.5671 25.4611C52.75 25.2932 52.9681 25.1614 53.2081 25.0739C53.4825 24.9787 53.7738 24.9316 54.067 24.935C54.2162 24.9348 54.3652 24.9457 54.5125 24.9675C54.6428 24.9871 54.7706 25.0188 54.8939 25.0621C55.006 25.1009 55.1134 25.1504 55.2144 25.2099C55.3126 25.2682 55.4058 25.3334 55.4932 25.4049L55.3394 25.6355C55.3273 25.6565 55.3094 25.6742 55.2874 25.6867C55.2654 25.6992 55.2402 25.706 55.2144 25.7064C55.1789 25.7053 55.1445 25.6951 55.115 25.6768C55.067 25.6532 55.0157 25.6236 54.958 25.5882C54.8898 25.5488 54.818 25.5151 54.7433 25.4877C54.6477 25.4523 54.5491 25.4247 54.4484 25.4049C54.3142 25.3821 54.1779 25.3712 54.0414 25.3724C53.8299 25.3702 53.62 25.4054 53.4228 25.4759C53.2445 25.5418 53.0838 25.6427 52.9517 25.7714C52.8189 25.9056 52.7174 26.0635 52.6536 26.2354C52.5105 26.6397 52.5105 27.0755 52.6536 27.4797C52.7238 27.6553 52.833 27.8153 52.9741 27.9497C53.1056 28.0777 53.2651 28.1785 53.4421 28.2452C53.6458 28.3097 53.8619 28.3349 54.0766 28.3191Z" fill="#AFB1B8"/>
<path d="M59.1851 28.2598H60.9351V28.6853H58.6499V24.9531H59.198L59.1851 28.2598Z" fill="#AFB1B8"/>
<path d="M62.7556 28.6853H62.2075V24.9531H62.7556V28.6853Z" fill="#AFB1B8"/>
<path d="M64.7939 24.9707C64.8265 24.9879 64.8548 25.011 64.8772 25.0387L67.22 27.8524C67.2168 27.8081 67.2168 27.7637 67.22 27.7194C67.22 27.678 67.22 27.6366 67.22 27.5982V24.9382H67.6975V28.6858H67.4219C67.3811 28.6889 67.3401 28.6818 67.3033 28.6651C67.27 28.6465 67.2407 28.6225 67.2168 28.5942L64.8772 25.7835C64.8772 25.8278 64.8772 25.8692 64.8772 25.9106C64.8772 25.952 64.8772 25.9904 64.8772 26.0259V28.6858H64.4189V24.953H64.7042C64.7351 24.9531 64.7657 24.9591 64.7939 24.9707Z" fill="#AFB1B8"/>
<path d="M71.7323 24.9531V25.3639H69.7901V26.5961H71.3637V26.9921H69.7901V28.2658H71.7323V28.6765H69.2261V24.9531H71.7323Z" fill="#AFB1B8"/>
<path d="M14.3035 1.90313L38.6385 8.27447V30.6008L14.3035 24.2324V1.90313ZM12.7427 0V25.3169L40.196 32.5068V7.19288L12.7427 0Z" fill="#AFB1B8"/>
<path d="M27.4565 44.259L0 37.0632V11.749L27.4565 18.9419V44.259Z" fill="#AFB1B8"/>
<path d="M13.1978 1.61644L37.2155 7.90783L27.0014 17.3287L2.98057 11.0343L13.1978 1.61644ZM12.7427 0L0 11.7494L27.4565 18.9421L40.196 7.19269L12.7427 0Z" fill="#AFB1B8"/>
<path d="M29.0015 42.835L40.1962 32.5099L29.0015 29.5754V42.835Z" fill="#AFB1B8"/>
</svg>
